<svg xmlns="http://www.w3.org/2000/svg" width="14.625" height="16" viewBox="0 0 14.625 16">
  <metadata><?xpacket begin="﻿" id="W5M0MpCehiHzreSzNTczkc9d"?>
<x:xmpmeta xmlns:x="adobe:ns:meta/" x:xmptk="Adobe XMP Core 5.6-c138 79.159824, 2016/09/14-01:09:01        ">
   <rdf:RDF xmlns:rdf="http://www.w3.org/1999/02/22-rdf-syntax-ns#">
      <rdf:Description rdf:about=""/>
   </rdf:RDF>
</x:xmpmeta>
                                                                                                    
                                                                                                    
                                                                                                    
                                                                                                    
                                                                                                    
                                                                                                    
                                                                                                    
                                                                                                    
                                                                                                    
                                                                                                    
                                                                                                    
                                                                                                    
                                                                                                    
                                                                                                    
                                                                                                    
                                                                                                    
                                                                                                    
                                                                                                    
                                                                                                    
                                                                                                    
                           
<?xpacket end="w"?></metadata>
<defs>
    <style>
      .cls-1 {
        fill: #fff;
        fill-rule: evenodd;
      }
    </style>
  </defs>
  <path class="cls-1" d="M941.663,13.425a6.385,6.385,0,0,1,8.295-.219l-1.9.072a0.441,0.441,0,0,0,.017.882h0.016l2.915-.108a0.44,0.44,0,0,0,.425-0.441V13.559h0l-0.107-2.88a0.442,0.442,0,0,0-.883.033l0.069,1.806a7.256,7.256,0,0,0-11.623,7.344,0.439,0.439,0,0,0,.428.336,0.382,0.382,0,0,0,.1-0.013,0.441,0.441,0,0,0,.324-0.532A6.367,6.367,0,0,1,941.663,13.425Zm11.449,3.213a0.441,0.441,0,0,0-.856.209,6.376,6.376,0,0,1-10.267,6.4l1.922-.173a0.441,0.441,0,1,0-.081-0.878l-2.906.261a0.44,0.44,0,0,0-.4.48l0.262,2.9a0.44,0.44,0,0,0,.438.4,0.151,0.151,0,0,0,.039,0,0.441,0.441,0,0,0,.4-0.48l-0.157-1.767a7.21,7.21,0,0,0,4.193,1.6c0.124,0.007.249,0.01,0.37,0.01A7.253,7.253,0,0,0,953.112,16.638Z" transform="translate(-938.688 -10.25)"/>
</svg>
